<?xml version="1.0" encoding="UTF-8"?>
<svg id="_レイヤー_1" xmlns="http://www.w3.org/2000/svg" version="1.1" viewBox="0 0 1927 496.94">
  <!-- Generator: Adobe Illustrator 30.0.0, SVG Export Plug-In . SVG Version: 2.1.1 Build 123)  -->
  <defs>
    <style>
      .st0 {
        fill: #fff;
      }
    </style>
  </defs>
  <g>
    <g>
      <path class="st0" d="M669.05,259.51l9.42,71.3h-29.31l-5.62-42.63h-29.62l-5.73,42.63h-29.2l9.42-71.01,20.48-130.01h39.75l20.4,129.72h0ZM639.74,259.51l-11.06-83.62-11.06,83.62h22.12Z"/>
      <polygon class="st0" points="693.76 330.83 693.76 129.79 722.77 129.79 722.77 302.23 768.98 302.23 768.98 330.83 693.76 330.83"/>
      <polygon class="st0" points="847.42 267.5 881.14 129.79 910.14 129.79 910.14 330.81 882.35 330.81 882.35 218.01 857.55 330.81 837.89 330.81 812.38 218.01 812.38 330.81 784.29 330.81 784.29 129.79 813.29 129.79 847.42 267.5"/>
      <path class="st0" d="M1015.51,259.51l9.42,71.3h-29.31l-5.62-42.63h-29.62l-5.73,42.63h-29.22l9.42-71.01,20.48-130.01h39.75l20.4,129.72h.02ZM986.19,259.51l-11.06-83.62-11.06,83.62h22.12Z"/>
      <polygon class="st0" points="1090.19 129.79 1165.4 129.79 1165.4 158.39 1119.19 158.39 1119.19 215.95 1158.94 215.95 1158.94 244.67 1119.19 244.67 1119.19 330.83 1090.19 330.83 1090.19 129.79"/>
      <rect class="st0" x="1183.3" y="129.79" width="29" height="201.02"/>
      <path class="st0" d="M1318.58,291.79c0,28.14-13.91,42.25-41.7,42.32-27.74,0-41.61-14.11-41.61-42.32v-122.95c0-28.14,13.87-42.23,41.61-42.23s41.7,14.09,41.7,42.23v27.06h-29v-27.06c0-9.03-4.2-13.56-12.61-13.63h-.2c-8.34,0-12.5,4.53-12.5,13.63v122.95c0,9.09,4.2,13.63,12.61,13.63s12.7-4.53,12.7-13.63v-47.12h-14.64v-28.69h43.65v75.81h0Z"/>
      <polygon class="st0" points="1341.07 129.79 1370.08 129.79 1370.08 215.95 1395.38 215.95 1395.38 129.79 1424.39 129.79 1424.39 330.83 1395.38 330.83 1395.38 244.67 1370.08 244.67 1370.08 330.83 1341.07 330.83 1341.07 129.79"/>
      <polygon class="st0" points="1524.02 129.79 1524.02 158.39 1496.86 158.39 1496.86 330.83 1467.88 330.83 1467.88 158.39 1440.71 158.39 1440.71 129.79 1524.02 129.79"/>
      <path class="st0" d="M1671.58,291.79c0,28.14-13.91,42.25-41.7,42.32-27.74,0-41.61-14.11-41.61-42.32v-122.95c0-28.14,13.85-42.23,41.61-42.23s41.7,14.09,41.7,42.23v27.06h-29v-27.06c0-9.03-4.2-13.56-12.61-13.63h-.2c-8.34,0-12.5,4.53-12.5,13.63v122.95c0,9.09,4.2,13.63,12.61,13.63s12.7-4.53,12.7-13.63v-47.12h-14.64v-28.69h43.65v75.81h0Z"/>
      <polygon class="st0" points="1715.58 129.79 1735.35 208.17 1755.11 129.79 1785.86 129.79 1750.73 243.83 1749.89 246.3 1749.89 330.83 1720.91 330.83 1720.91 246.3 1719.98 243.83 1684.83 129.79 1715.58 129.79"/>
      <polygon class="st0" points="1864.3 267.5 1898.02 129.79 1927 129.79 1927 330.81 1899.23 330.81 1899.23 218.01 1874.43 330.81 1854.77 330.81 1829.26 218.01 1829.26 330.81 1801.17 330.81 1801.17 129.79 1830.17 129.79 1864.3 267.5"/>
    </g>
    <g>
      <path class="st0" d="M909.39,394.92c0-14.76,7.23-21.83,20.95-21.83s20.82,7.08,20.82,21.83v62.58c0,14.76-7.23,21.83-20.82,21.83s-20.95-7.08-20.95-21.83v-62.58ZM930.34,465.16c3.25,0,4.71-1.77,4.71-5.31v-67.29c0-3.54-1.48-5.31-4.71-5.31s-4.87,1.77-4.87,5.31v67.29c0,3.54,1.48,5.31,4.87,5.31Z"/>
      <path class="st0" d="M975.2,459.85c0,3.54,1.33,5.31,4.58,5.31s4.58-1.77,4.58-5.31v-8.56c0-21.99-24.2-21.26-24.2-53.14v-4.71c0-13.27,6.79-20.37,20.22-20.37s20.22,7.08,20.22,21.83v14.31h-15.04v-16.68c0-3.54-1.33-5.31-4.58-5.31s-4.58,1.77-4.58,5.31v6.19c0,21.99,24.2,21.39,24.2,53.14v7.08c0,13.27-6.79,20.37-20.22,20.37s-20.22-7.08-20.22-21.83v-17.12h15.04v19.49Z"/>
      <path class="st0" d="M1091.49,374.55h15.49l-17.3,53.29,17.43,50.02h-16.68l-11.95-34v34h-16.24v-103.31h16.24v42.89l12.99-42.89h.02Z"/>
      <path class="st0" d="M1209.12,477.85h-16.08v-103.31h16.08v41.63h9.6v-41.63h16.08v103.31h-16.08v-43.93h-9.6v43.93Z"/>
      <path class="st0" d="M1245.42,394.92c0-14.76,7.23-21.83,20.95-21.83s20.82,7.08,20.82,21.83v62.58c0,14.76-7.23,21.83-20.82,21.83s-20.95-7.08-20.95-21.83v-62.58ZM1266.37,465.16c3.25,0,4.71-1.77,4.71-5.31v-67.29c0-3.54-1.48-5.31-4.71-5.31s-4.87,1.77-4.87,5.31v67.29c0,3.54,1.48,5.31,4.87,5.31Z"/>
      <path class="st0" d="M1342.53,374.55v103.31h-18.89l-9-44.71c-1.33-7.23-3.1-17.85-4.27-24.8.29,6.95.88,17.85.88,24.93v44.58h-15.55v-103.31h22.79l7.08,34.69c1.48,7.23,3.1,18.01,4.27,24.8-.29-6.79-.88-18.01-.88-25.09v-34.38h13.58v-.02Z"/>
      <path class="st0" d="M1385.91,405.54l4.27-30.99h22.43v103.31h-15.8v-38.67c0-12.99.6-24.93,1.17-37.78-1.48,12.83-2.81,24.8-4.42,37.63l-5.62,38.8h-11.66l-5.62-38.8c-1.61-12.83-2.94-24.8-4.42-37.63.6,12.83,1.17,24.8,1.17,37.78v38.67h-15.99v-103.31h25.29l4.14,30.99c1.04,7.52,2.06,17.26,2.5,25.82.6-8.56,1.61-18.29,2.5-25.82h.07Z"/>
      <path class="st0" d="M1494.82,465.16c3.25,0,4.71-1.77,4.71-5.31v-26.41h14.91v24.05c0,14.76-6.95,21.83-20.22,21.83s-20.37-7.08-20.37-21.83v-62.58c0-14.76,7.08-21.83,20.37-21.83s20.22,7.08,20.22,21.83v21.1h-14.91v-23.47c0-3.54-1.48-5.31-4.71-5.31s-4.87,1.77-4.87,5.31v67.29c0,3.54,1.48,5.31,4.87,5.31h0v.02Z"/>
      <path class="st0" d="M1541.03,477.85h-16.08v-103.31h16.08v42.5h9.6v-42.5h16.08v103.31h-16.08v-46.79h-9.6v46.79Z"/>
      <path class="st0" d="M1578.22,374.55h16.08v103.31h-16.08v-103.31Z"/>
      <path class="st0" d="M1051.37,441l4.84,36.63h-15.07l-2.9-21.9h-15.22l-2.94,21.9h-15.02l4.84-36.48,10.53-66.81h20.44l10.49,66.65ZM1036.3,441l-5.69-42.96-5.69,42.96h11.37Z"/>
      <path class="st0" d="M1158.13,441l4.84,36.63h-15.07l-2.9-21.9h-15.22l-2.94,21.9h-15.02l4.84-36.48,10.53-66.81h20.44l10.49,66.65ZM1143.06,441l-5.69-42.96-5.69,42.96h11.37Z"/>
      <path class="st0" d="M1464.2,441l4.84,36.63h-15.07l-2.9-21.9h-15.22l-2.94,21.9h-15.02l4.84-36.48,10.53-66.81h20.44l10.49,66.65ZM1449.14,441l-5.69-42.96-5.69,42.96h11.37Z"/>
    </g>
  </g>
  <path class="st0" d="M323.2,32.67L123.32,289.64v-32.58L301.98,25.97,219.77,0s-52.55,46.4-95.21,17.82c0,0,20.43,63.56,91.71,75.49,5.25.88,9.7,2.64,13.42,4.74h-12.55v-.04h-97.59c-2.71,0-6.48,1.57-8.4,3.48l-57.18,57.18c-1.91,1.92-3.48,5.69-3.48,8.39v111.14c-18.61-9.4-36.91-23.72-30.15-42,0,0-54.44,56.28,14.82,104.48,0,0,6.77,2.14,15.33,4.84v24.38c0,2.7,1.04,6.87,2.31,9.26,0,0,4.36,8.2,19.16,22.43,19.35,18.6,52.61,40.07,103.02,40.07,54.19-.19,86.66-28.7,91.52-32.48,3.14-2.41,3.25-4.94,3.25-7.64l-.02-58.91c-17.28,34.85-53.33,58.89-94.75,58.89-35.13,0-65.53-14.17-84.35-39.1v-183.63l20.03-20.03v188.21h.02v5.74c16.44,18.08,41.12,28.24,69.47,28.24,38.46,0,79.81-43.77,89.56-72.26h0c6.48-16.07,6.8-29.67,4.92-40.14h0c-2.71-15.07-9.98-23.65-10.01-23.68h0c-7.32-9.81-21.74-19.97-21.74-19.97,0,0,10.01,22.68.57,35.94h-45.09l90.91-111.7v265.06c-.19.57-.43,1.14-.66,1.7-2.15,4-8.9,12.45-17.2,18.69-11.94,8.54-28.54,14.26-35.5,16.42l93.43,26.32V110.27c.09-4.31,1.17-8.19,3-11.69h0s.02-.03.02-.04c.18-.34.36-.67.56-1,.03-.05.06-.1.09-.15.2-.34.41-.69.63-1.03,0,0,0,0,0-.01,1.85-2.88,4.22-5.48,6.95-7.83h.02c18.64-16,53.82-33.33,53.82-33.33l-71.21-22.5h0ZM123.32,146.07l7.93-7.93h70.11l-78.04,95.14v-87.21h0ZM214.19,300.94l-.05,56.73c-10.38,6.63-21.92,10.64-33.98,10.64-21.46,0-40.42-6.49-54.29-18.42l39.49-48.95h48.83,0ZM481.64,183.37c.19,1.34-.74,2.63-2.08,2.86l-17.06,3.03c-1.33.24-2.93-.55-3.56-1.75,0,0-14.48-27.86-24.27-36.48s-20.99-12.95-33.89-12.95h-38.91v122.63h67.76c10.55-.7,17.53-6.43,22.14-13.85,9.58-15.42,8.99-36.92,8.99-36.92-.02-.68.52-1.23,1.19-1.23h9.12c.67,0,1.23.55,1.23,1.23l-.08,122.89c0,.67-.56,1.23-1.23,1.23h-4.89c-.67,0-1.21-.56-1.19-1.23,0,0,.48-17.37-8.56-26.67-3.01-3.1-7.09-5.17-12.6-5.17v-.12h-81.88v104.64c0,3.83,8.53,18.44,26.2,20.8,79.82,10.68,69.18,54.13,69.18,54.13-11.08-18.08-40.5,1.84-58.25,16.5l-49.81-14.03V103.46c0-2.7,2.21-4.92,4.92-4.93l75.43-.19c20.81-1.28,50.99-6.66,49.91-27.16,0,0,16.3,27.14-4.78,62.76l1.79,12.68,5.18,36.74h0Z"/>
</svg>